<?xml version="1.0" standalone="no"?>
<!DOCTYPE svg PUBLIC "-//W3C//DTD SVG 20010904//EN"
 "http://www.w3.org/TR/2001/REC-SVG-20010904/DTD/svg10.dtd">
<svg version="1.0" xmlns="http://www.w3.org/2000/svg"
 width="200.000000pt" height="200.000000pt" viewBox="0 0 200.000000 200.000000"
 preserveAspectRatio="xMidYMid meet">
<metadata>
Created by potrace 1.11, written by Peter Selinger 2001-2013
</metadata>
<g transform="translate(0.000000,200.000000) scale(0.100000,-0.100000)"
fill="#000000" stroke="none">
<path d="M220 1418 c-44 -16 -90 -92 -92 -153 0 -16 14 -68 31 -114 45 -119
43 -161 -8 -266 -41 -85 -44 -104 -22 -155 33 -80 82 -92 220 -56 133 36 211
69 392 171 l106 60 1 127 0 127 -32 24 c-45 33 -182 119 -246 154 -81 44 -157
70 -225 78 -33 4 -69 8 -80 10 -11 1 -31 -2 -45 -7z"/>
<path d="M1835 1392 c-59 -6 -265 -62 -342 -92 -43 -16 -125 -57 -183 -90
l-105 -59 -1 -131 -1 -130 106 -69 c214 -139 333 -190 457 -197 55 -2 64 0 91
25 72 66 82 136 35 251 -43 105 -40 177 11 277 40 79 44 106 23 156 -17 41
-52 63 -91 59z"/>
<path d="M908 1164 c-25 -8 -33 -44 -31 -153 1 -126 4 -130 152 -130 73 0 115
5 127 13 15 11 17 30 18 130 0 79 -4 120 -12 128 -13 13 -218 22 -254 12z"/>
<path d="M686 785 c-81 -41 -206 -97 -276 -126 -71 -29 -127 -56 -125 -59 9
-15 125 -40 155 -35 46 8 105 40 185 100 64 47 227 195 215 194 -3 0 -72 -34
-154 -74z"/>
<path d="M1241 813 c179 -192 286 -262 377 -248 76 11 102 17 107 24 2 4 -28
17 -68 29 -86 26 -210 88 -343 171 -53 34 -99 61 -102 61 -3 0 10 -17 29 -37z"/>
</g>
</svg>
